<svg id="Layer_1" data-name="Layer 1" xmlns="http://www.w3.org/2000/svg" viewBox="0 0 1251.485 548.2275"><defs><style>.cls-1{fill:none;stroke:#fff;stroke-miterlimit:10;stroke-width:12px;}.cls-2{fill:#fff;}</style></defs><polygon class="cls-1" points="234.67 233.564 263.744 184.597 294.322 225.919 320.362 261.108 510.109 137.16 233.14 158.583 234.67 233.564"/><line class="cls-1" x1="229.5398" y1="245.8833" x2="296.9821" y2="232.4412"/><line class="cls-1" x1="263.744" y1="183.0667" x2="505.5179" y2="140.2207"/><polyline class="cls-1" points="505.518 139.139 233.14 158.583 147.632 140.221 510.109 137.16"/><path class="cls-1" d="M167.6449,225.5421S-5.0843,221.3237,8.3972,504.6547"/><path class="cls-1" d="M213.894,261.4317S82.79,273.8421,22.293,546.93"/><path class="cls-1" d="M178.052,250.0273s-90.7408,12.282-110.186,78.2182"/><path class="cls-1" d="M118.0935,213.9278s-37.2207-5.5044-50.2275,21.89"/><path class="cls-2" d="M557.21,450.4264q-7.0254,0-11.0557-4.0361-4.04-4.04-4.0371-11.0566V271.4167q.3458-27.378,13.1631-49.4912a93.7912,93.7912,0,0,1,34.5732-34.7491q21.7589-12.6357,49.14-12.6357,28.078,0,50.0175,12.8115A94.8566,94.8566,0,0,1,723.76,222.277q12.8085,22.1118,12.8115,50.1924,0,27.7324-12.2852,49.8418a93.3777,93.3777,0,0,1-33.1689,34.9248q-20.8872,12.8173-47.5606,12.8115-22.8207,0-41.4179-9.6523a85.6115,85.6115,0,0,1-30.1866-25.4473V435.3337q0,7.0165-4.0361,11.0566Q563.8761,450.4216,557.21,450.4264Zm81.7832-107.0546q19.6537,0,35.2754-9.3018a66.68,66.68,0,0,0,24.57-25.4473,73.2911,73.2911,0,0,0,8.95-36.1533q0-20.3526-8.95-36.3281a68.8427,68.8427,0,0,0-24.3946-25.4473q-15.45-9.4775-35.1-9.4775a66.9758,66.9758,0,0,0-34.9248,9.3017,65.419,65.419,0,0,0-24.3945,25.4473q-8.7774,16.1484-8.7754,36.5039a74.44,74.44,0,0,0,8.7754,36.1533,65.6263,65.6263,0,0,0,58.9678,34.7491Z"/><path class="cls-2" d="M832.7432,368.2926a44.017,44.017,0,0,1-25.9737-7.8974q-11.2383-7.897-17.5507-21.9375-6.318-14.0347-6.3174-32.292V108.904q0-6.6636,4.0361-10.7061,4.0313-4.0312,10.7051-4.0361a14.0326,14.0326,0,0,1,10.3545,4.0361q4.0313,4.04,4.0371,10.7061V306.1657q0,14.3965,5.791,23.6924,5.792,9.3046,14.918,9.3017h8.7744a11.5445,11.5445,0,0,1,9.1269,4.0362,15.2334,15.2334,0,0,1,3.51,10.3545,12.986,12.986,0,0,1-5.09,10.706q-5.0919,4.0386-13.1622,4.0361Z"/><path class="cls-2" d="M968.5791,370.0475q-28.7856,0-50.8955-12.46a90.4831,90.4831,0,0,1-34.749-34.5742q-12.6359-22.1133-12.6358-50.544,0-28.7769,11.9336-50.72a89.7025,89.7025,0,0,1,32.8184-34.5733q20.88-12.6357,48.2627-12.6357,26.67,0,46.5078,12.1094a80.7145,80.7145,0,0,1,30.5371,33.5205q10.7022,21.4144,10.7051,48.789a12.7383,12.7383,0,0,1-3.86,9.6524,13.6681,13.6681,0,0,1-9.8281,3.6855H890.6562V258.0788H1039.13l-15.0928,10.53q.3442-19.3008-7.02-34.7491a57.4836,57.4836,0,0,0-21.06-24.22q-13.6889-8.7685-32.6435-8.7744-20.0068,0-34.9239,9.126a59.4725,59.4725,0,0,0-22.8154,25.4472q-7.8969,16.3213-7.8974,37.03,0,20.7144,9.1259,36.8555a65.8626,65.8626,0,0,0,25.0967,25.2715q15.9668,9.1318,36.68,9.1259a75.9274,75.9274,0,0,0,24.3945-4.2119q12.4542-4.2114,19.8311-10.5293a16.6051,16.6051,0,0,1,9.6523-3.3349,12.2608,12.2608,0,0,1,8.95,2.9834q5.2662,4.5659,5.4414,9.8281.1729,5.2647-4.7392,9.126-11.5826,9.8306-29.4834,16.1455A102.3246,102.3246,0,0,1,968.5791,370.0475Z"/><path class="cls-2" d="M1154.9629,368.2926q-9.1318,0-13.6895-9.8281L1064.4053,195.6a11.5847,11.5847,0,0,1-.5274-9.8272,14.674,14.674,0,0,1,7.5469-7.7226,12.0671,12.0671,0,0,1,10.3545-.877,15.0753,15.0753,0,0,1,7.8975,6.8438l73.0078,158.3017h-15.0928l72.3057-158.3017a11.6072,11.6072,0,0,1,7.7226-7.02,14.6212,14.6212,0,0,1,10.8809.7022,13.891,13.891,0,0,1,7.3711,7.8974,12.5169,12.5169,0,0,1-.3516,9.6524l-76.167,163.2148Q1164.789,368.295,1154.9629,368.2926Z"/><path class="cls-2" d="M31,262.7432a231.7375,231.7375,0,0,1,415.8066-140.8l38.15.5224A264.1012,264.1012,0,0,0,448.53,76.9561,262.8517,262.8517,0,0,0,12.2744,342.3914q3.1509-8.5716,6.8926-17.5472C23.7139,314,28.4536,303.9724,33.2,294.7588A234.2278,234.2278,0,0,1,31,262.7432Z"/><path class="cls-2" d="M504.3569,159.2236l-26.2661,17.7141A231.7831,231.7831,0,0,1,98.876,426.6113q-8.38-8.38-15.78-17.45c-.65,1.1778-1.3,2.3594-1.9414,3.5762a212.6615,212.6615,0,0,0-12.1016,27.5156c2.5713,2.8037,5.1953,5.5713,7.9024,8.2783A262.8536,262.8536,0,0,0,504.3569,159.2236Z"/><path class="cls-2" d="M37.32,358.1553a223.06,223.06,0,0,0-6.2871,28.6108,259.3415,259.3415,0,0,0,16.55,26.853A212.4221,212.4221,0,0,1,56.82,393.6553c2.2481-4.2637,4.5571-8.2705,6.8828-12.0579A228.7163,228.7163,0,0,1,43.83,339.021C41.53,344.9009,39.3149,351.2727,37.32,358.1553Z"/></svg>