<svg id="Layer_1" data-name="Layer 1" xmlns="http://www.w3.org/2000/svg" viewBox="0 0 16 16"><defs><style>.cls-1{fill:#c25e00;}.cls-2{fill:#0087a8;}</style></defs><path class="cls-1" d="M9.5294,7.8573,7.9355,5.7035l-1.0271,1.73L6.8479,4.4664l8.93-.6907ZM7.9035,5.0714,9.6144,7.3835,14.4415,4.23l-7.2367.56L7.2336,6.2Z"/><rect class="cls-1" x="6.9019" y="6.8048" width="2.007" height="0.3502" transform="translate(-1.2119 1.68) rotate(-11.2724)"/><rect class="cls-1" x="7.8646" y="4.5425" width="7.1661" height="0.3502" transform="translate(-0.6475 2.0697) rotate(-10.0484)"/><path class="cls-1" d="M7.0139,4.8047l-4.07-.8741,12.1645-.1027.0029.35-.127.0011.004.0562Zm-.896-.5506.9208.1977,3.2652-.2331Z"/><path class="cls-1" d="M.2923,14.7367a13.1577,13.1577,0,0,1,.45-4.47A6.1278,6.1278,0,0,1,2.1634,7.7592,4.2888,4.2888,0,0,1,5.1191,6.4074l-.0082.35A4.0163,4.0163,0,0,0,2.4077,8.01a5.7917,5.7917,0,0,0-1.3329,2.3664A12.8259,12.8259,0,0,0,.6421,14.72Z"/><path class="cls-1" d="M1.0438,16l-.342-.0758a19.023,19.023,0,0,1,1.6346-4.7078A9.3432,9.3432,0,0,1,4.212,8.6786a4.2448,4.2448,0,0,1,2.2362-1.223l.033.3486L6.4647,7.63l.0172.1743a2.3884,2.3884,0,0,0-.6023.18,5.0092,5.0092,0,0,0-1.4568.977,9.0649,9.0649,0,0,0-1.79,2.4452A18.7326,18.7326,0,0,0,1.0438,16Z"/><path class="cls-1" d="M2.3708,9.6294,2.0349,9.53A3.2431,3.2431,0,0,1,3.9516,7.5571a5.7665,5.7665,0,0,1,1.4435-.4336l.047.3471L5.4186,7.297l.0236.1736C5.4168,7.474,2.8991,7.838,2.3708,9.6294Z"/><path class="cls-1" d="M2.361,6.9574l-.3163-.15A1.313,1.313,0,0,1,3.0459,6.091,2.1549,2.1549,0,0,1,3.6943,6.07l-.0512.3464.0256-.1732-.0253.1733C3.6339,6.4154,2.68,6.2865,2.361,6.9574Z"/><path class="cls-2" d="M1.1269,7.6682A6.7634,6.7634,0,0,1,12.6728,2.8857a6.7974,6.7974,0,0,1,.5894.6732l1.1134.0152A7.7044,7.7044,0,0,0,13.3125,2.246,7.6713,7.6713,0,0,0,.58,9.9927q.0919-.25.2011-.5121c.1327-.3165.2711-.6092.41-.8781A6.8274,6.8274,0,0,1,1.1269,7.6682Z"/><path class="cls-2" d="M14.9418,4.6469l-.7666.517A6.7645,6.7645,0,0,1,3.1079,12.4506q-.2447-.2445-.4606-.5092c-.019.0343-.0379.0688-.0567.1043a6.2018,6.2018,0,0,0-.3531.8031c.075.0818.1516.1626.2306.2416A7.6714,7.6714,0,0,0,14.9418,4.6469Z"/><path class="cls-2" d="M1.3114,10.4528a6.4986,6.4986,0,0,0-.1835.835,7.5577,7.5577,0,0,0,.483.7837,6.1827,6.1827,0,0,1,.27-.5827c.0656-.1244.133-.2414.2008-.3519a6.68,6.68,0,0,1-.58-1.2426C1.4342,10.0659,1.37,10.2519,1.3114,10.4528Z"/></svg>